<?xml version="1.0" standalone="no"?><!DOCTYPE svg PUBLIC "-//W3C//DTD SVG 1.1//EN" "http://www.w3.org/Graphics/SVG/1.1/DTD/svg11.dtd"><svg t="1489408606832" class="icon" style="" viewBox="0 0 1130 1024" version="1.1" xmlns="http://www.w3.org/2000/svg" p-id="2596" xmlns:xlink="http://www.w3.org/1999/xlink" width="141.25" height="128"><defs><style type="text/css"></style></defs><path d="M488.341015 0H305.381254C238.026507 0 183.402985 54.287284 183.402985 121.25994v200.704C183.402985 388.982448 238.011224 443.223881 305.36597 443.223881h182.975045c4.248836 0-11.401552-68.195343-11.401552-68.195344l-160.630448-31.912119c-16.552119-3.301254-29.986388-19.715821-29.986388-36.65003V136.757493c0-16.949493 13.403701-33.348776 30.001672-36.65003l160.615164-31.91212S492.574567 0 488.341015 0zM612.076896 0h182.959761C862.391403 0 917.014925 54.287284 917.014925 121.25994v200.704C917.014925 388.982448 862.406687 443.223881 795.05194 443.223881H612.061612c-4.248836 0 11.401552-68.195343 11.401552-68.195344l160.630448-31.912119c16.552119-3.301254 29.986388-19.715821 29.986388-36.65003V136.757493c0-16.949493-13.403701-33.348776-30.001672-36.65003L623.478448 68.195343S607.843343 0 612.076896 0z" fill="#00C1E0" p-id="2597" class="selected"></path><path d="M473.791045 213.970149h137.552239v15.283582h-137.552239zM596.059701 687.761194v50.466388h75.989971l7.916895 35.916418h-83.601194v50.710925c29.48203 0 57.267582 1.528358 84.732179-0.978149 7.702925-0.703045 20.235463-12.868776 20.663403-20.403582 2.124418-37.842149 0.978149-75.882985 0.978149-115.712H596.059701z m-45.850746 0h-106.985074v122.268657h106.068059v-44.704478h-83.769313l7.687642-33.073672H550.208955V687.761194z m3.683344 169.785313h-139.539105V657.19403h317.394149c0 53.492537 1.986866 105.655403-0.779462 157.573731-1.543642 28.733134-19.792239 41.724179-48.769911 42.473075-29.115224 0.748896-58.261015 0.152836-89.393671 0.152836v47.379104h112.792835l8.467105 36.619463h-121.703164v47.822328h132.997731L733.61194 1024H412.656716l6.709493-33.40991h134.724776V942.385672h-122.742448l7.33612-35.763582h115.207642v-49.060299z m500.659582 26.685135h34.556179c7.947463 34.953552 16.613254 69.341612 23.353313 104.127045 4.279403 22.130627-10.209433 35.259224-37.796298 35.442626-56.931343 0.366806-113.862687 0.122269-170.809314 0.137553h-75.913552l43.099701-194.483582H810.029851L817.411821 794.746269H1122.579104l8.405971 33.639164H907.86006L872.66197 986.249552h203.577314l-21.702687-102.01791zM54.134448 985.057433v-39.997134c40.012418-40.654328 40.165254-84.365373-1.069851-138.927762l25.447164-115.773134H33.990687V1024H0V657.19403h122.268657c-8.849194 38.957851-16.842507 76.845851-26.272478 114.367045-4.019582 15.986627-2.292537 28.733134 5.349254 44.062567 22.497433 45.086567 26.486448 91.716776-5.028299 134.724776-9.353552 12.777075-24.927522 20.846806-42.182686 34.693731zM336.238806 657.19403c-27.143642 95.690507-8.176716 192.114627-13.95391 287.300776-2.827463 46.614925-33.333493 75.760716-86.566209 79.505194l-7.137433-29.405612c12.807642-5.226985 26.134925-7.106866 34.235224-14.825075 10.423403-9.903761 23.307463-24.300896 23.628418-37.07797 2.093851-83.173254 1.069851-166.422925 1.06985-252.408358h-126.456358L152.835821 657.19403h183.402985z m-76.616597 76.41791c0 63.610269 0.59606 124.759881-0.275105 185.894209-0.366806 25.370746-14.305433 40.088836-39.859582 42.381373-21.397015 1.925731-43.099701 0.397373-66.651701 0.397374V733.61194h106.786388zM183.402985 916.05206c16.200597 2.216119 29.787701 2.154985 30.139224-17.62197 0.794746-44.261254 0.244537-88.568358 0.244537-134.250986H183.402985v151.872956zM825.313433 687.761194l6.205134-30.567164h260.737911L1100.41791 687.761194H825.313433z" fill="#00C1E0" p-id="2598"></path></svg>