<?xml version="1.0" standalone="no"?><!DOCTYPE svg PUBLIC "-//W3C//DTD SVG 1.1//EN" "http://www.w3.org/Graphics/SVG/1.1/DTD/svg11.dtd"><svg t="1489411748846" class="icon" style="" viewBox="0 0 1024 1024" version="1.1" xmlns="http://www.w3.org/2000/svg" p-id="7672" xmlns:xlink="http://www.w3.org/1999/xlink" width="128" height="128"><defs><style type="text/css"></style></defs><path d="M184.94659 540.04875c110.533408-23.89721 95.447854-156.84747 92.134671-185.890687-5.357487-44.76321-57.733968-123.010713-128.861652-116.948293C58.834175 245.316493 45.722431 375.37653 45.722431 375.37653 33.668086 435.436774 74.695154 563.875467 184.94659 540.04875zM302.24735 771.196101c-3.242689 9.375602-10.433 33.272811-4.229595 54.068319 12.336318 46.666528 52.658454 48.851819 52.658454 48.851819l57.874954 0 0-142.396355L346.587601 731.719883C318.742769 740.038086 305.278559 761.820499 302.24735 771.196101zM390.011439 317.078616c61.047151 0 110.392422-70.775218 110.392422-158.186842 0-87.34113-49.345271-158.045855-110.392422-158.045855C329.105276 0.916413 279.619018 71.621137 279.619018 158.962267 279.689511 246.373891 329.175769 317.078616 390.011439 317.078616zM652.951243 327.511616c81.560685 10.64448 134.078152-76.978624 144.511152-143.38326 10.64448-66.334144-42.013974-143.38326-99.747942-156.565497C639.8395 14.169142 567.583923 107.502199 561.028052 168.337869 553.132809 242.637749 571.531546 316.93763 652.951243 327.511616zM852.870086 717.973701c0 0-126.253401-98.267583-199.918843-204.571397-99.818435-156.706483-241.79183-92.910097-289.233784-13.182237-47.230474 79.657367-120.895916 130.060037-131.328915 143.38326-10.573986 13.111744-152.476889 90.160861-120.966408 231.006363 31.51048 140.704517 142.114382 138.025773 142.114382 138.025773s81.560685 8.106724 176.092126-13.25273c94.601935-21.147974 176.021633 5.2165 176.021633 5.2165s220.996323 74.51136 281.479527-68.8719C947.401528 792.344073 852.870086 717.973701 852.870086 717.973701zM474.74432 931.356753 331.14958 931.356753c-62.034056-12.477304-86.777184-55.055224-89.878888-62.316029-3.03121-7.40179-20.654521-41.661508-11.349413-99.888928C256.708713 681.810665 333.193884 675.60726 333.193884 675.60726l76.414678 0L409.608562 581.005325l65.135758 0.986905L474.74432 931.356753 474.74432 931.356753zM742.336678 930.369848 577.030018 930.369848c-64.07836-16.636406-67.039076-62.457015-67.039076-62.457015l0-183.987369 67.039076-1.127892 0 165.377153c4.088609 17.693805 25.871021 20.866001 25.871021 20.866001l68.096475 0L670.997514 683.925463l71.409657 0L742.336678 930.369848 742.336678 930.369848zM976.374251 439.102424c0-31.792453-26.293981-127.451787-123.504165-127.451787-97.492158 0-110.462915 90.301847-110.462915 154.168727 0 60.976657 5.146007 145.991511 126.112415 143.242274C989.626982 606.312401 976.374251 471.035863 976.374251 439.102424z" p-id="7673" fill="#1296db"></path></svg>