<?xml version="1.0" standalone="no"?><!DOCTYPE svg PUBLIC "-//W3C//DTD SVG 1.1//EN" "http://www.w3.org/Graphics/SVG/1.1/DTD/svg11.dtd"><svg t="1489408811179" class="icon" style="" viewBox="0 0 1024 1024" version="1.1" xmlns="http://www.w3.org/2000/svg" p-id="4526" xmlns:xlink="http://www.w3.org/1999/xlink" width="128" height="128"><defs><style type="text/css"></style></defs><path d="M781.252839 575.202461c-21.37482 0-38.760792-17.703197-38.760792-39.71963 0-21.868053 17.385972-39.574321 38.760792-39.574321 21.373797 0 38.759769 17.70729 38.759769 39.574321C820.012607 557.499263 802.626635 575.202461 781.252839 575.202461M581.830927 575.202461c-21.37482 0-38.786375-17.703197-38.786375-39.71963 0-21.868053 17.412578-39.574321 38.786375-39.574321 21.375843 0 38.759769 17.70729 38.759769 39.574321C620.590696 557.499263 603.20677 575.202461 581.830927 575.202461M959.296861 631.640867c0-128.337947-112.931049-233.374188-256.089539-242.430448-6.698562-0.407276-13.395078-0.64059-20.122293-0.64059-152.565744 0-276.212856 108.853174-276.212856 243.071038 0 20.23895 2.883677 39.83731 8.213056 58.56279 29.673833 105.969497 138.411373 184.509271 267.9998 184.509271 44.1178 0 85.732593-9.05626 122.628922-25.275663l61.999053 42.866297c0 0 16.539698 11.678994 14.909571-10.80509l-17.502629-67.151399C922.896836 769.878279 959.296861 704.500269 959.296861 631.640867M260.160763 358.254384c-21.37482 0-38.788421-17.70729-38.788421-39.546691 0-22.016433 17.413602-39.720653 38.788421-39.720653 21.491477 0 38.760792 17.704221 38.760792 39.720653C298.922578 340.547093 281.653263 358.254384 260.160763 358.254384M504.312412 278.988062c21.373797 0 38.73214 17.704221 38.73214 39.720653 0 21.839401-17.358343 39.546691-38.73214 39.546691-21.491477 0-38.789445-17.70729-38.789445-39.546691C465.522967 296.691259 482.820935 278.988062 504.312412 278.988062M683.085028 368.328833c5.970992 0 11.793604 0.233314 17.647939 0.523933-22.744004-135.877667-155.681712-240.187361-316.341808-240.187361-176.531576 0-319.690066 126.065184-319.690066 281.395902 0 86.603427 44.467771 164.035984 114.300232 215.641315l-23.616884 90.156346c0 0-8.066723 29.909194 22.511713 16.452717l88.089267-60.832484c36.664038 12.95915 76.530001 20.122293 118.405737 20.122293 3.610224 0 7.077186-0.290619 10.541077-0.290619-5.066389-19.219737-7.804756-39.196721-7.804756-59.668984C387.128503 486.472604 519.949554 368.328833 683.085028 368.328833" p-id="4527" fill="#09bb07"></path></svg>